# xmcd CD database file
# Copyright (C) 1995 Ti Kan
#
# Track frame offsets:
#	150
#	20036
#	46572
#	71983
#	82295
#	100786
#	117757
#	148932
#	168605
#	195031
#	217596
#	242543
#	262247
#	280521
#
# Disc length: 4062 seconds
#
# Revision: 17
# Processed by: cddbd v1.4PL0 Copyright (c) Steve Scherf et al.
# Submitted via: NotifyCDPlayer(CDDB) 1.60beta7
#
DISCID=c30fdc0e
DTITLE=Barry White - The Ballads
DYEAR=1900
DGENRE=
TTITLE0=You're the one I need
TTITLE1=Beware
TTITLE2=Love ain't easy
TTITLE3=You're my high
TTITLE4=She's everything to me
TTITLE5=Relax to the max
TTITLE6=Don't tell me about heartaches
TTITLE7=It's all about love
TTITLE8=love song
TTITLE9=Love makin' music
TTITLE10=High steppin' hip dressin' fella (you got it together)
TTITLE11=I won't settle for less than the best (for you baby)
TTITLE12=I'm so glad that I'm a woman
TTITLE13=Didn't we make it happen baby
EXTD=
EXTT0=
EXTT1=
EXTT2=
EXTT3=
EXTT4=
EXTT5=
EXTT6=
EXTT7=
EXTT8=
EXTT9=
EXTT10=
EXTT11=
EXTT12=
EXTT13=
PLAYORDER=
